<?xml version="1.0" encoding="utf-8"?>
<!-- Generator: Adobe Illustrator 18.1.1, SVG Export Plug-In . SVG Version: 6.00 Build 0)  -->
<svg version="1.1" id="Major" xmlns="http://www.w3.org/2000/svg" xmlns:xlink="http://www.w3.org/1999/xlink" x="0px" y="0px"
	 viewBox="0 0 64 64" enable-background="new 0 0 64 64" xml:space="preserve">
<path fill="#CE0000" d="M49.593,29.593L49.593,29.593c1.556-1.556,1.556-4.101,0-5.657L34.824,9.167
	c-1.556-1.556-4.101-1.556-5.657,0l0,0c-1.556,1.556-1.556,4.101,0,5.657l14.769,14.769C45.491,31.148,48.037,31.148,49.593,29.593z
	"/>
<path fill="#CE0000" d="M14.241,29.593L14.241,29.593c-1.556-1.556-1.556-4.101,0-5.657L29.01,9.167
	c1.556-1.556,4.101-1.556,5.657,0l0,0c1.556,1.556,1.556,4.101,0,5.657L19.897,29.593C18.342,31.148,15.796,31.148,14.241,29.593z"
	/>
<path fill="#EA4444" d="M49.593,49.556L49.593,49.556c1.556-1.556,1.556-4.101,0-5.657L34.824,29.13
	c-1.556-1.556-4.101-1.556-5.657,0l0,0c-1.556,1.556-1.556,4.101,0,5.657l14.769,14.769C45.491,51.111,48.037,51.111,49.593,49.556z
	"/>
<path fill="#EA4444" d="M14.241,49.556L14.241,49.556c-1.556-1.556-1.556-4.101,0-5.657L29.01,29.13
	c1.556-1.556,4.101-1.556,5.657,0l0,0c1.556,1.556,1.556,4.101,0,5.657L19.897,49.556C18.342,51.111,15.796,51.111,14.241,49.556z"
	/>
</svg>
