<?xml version="1.0" encoding="UTF-8"?>
<svg width="18px" height="18px" viewBox="0 0 18 18" version="1.1" xmlns="http://www.w3.org/2000/svg" xmlns:xlink="http://www.w3.org/1999/xlink">
    <!-- Generator: Sketch 46.2 (44496) - http://www.bohemiancoding.com/sketch -->
    <title>ic-account-box-48px</title>
    <desc>Created with Sketch.</desc>
    <defs></defs>
    <g id="Page-1" stroke="none" stroke-width="1" fill="none" fill-rule="evenodd">
        <g id="Login-View" transform="translate(-38.000000, -336.000000)">
            <g id="Form" transform="translate(-176.000000, 325.000000)">
                <g id="Field">
                    <g id="ic-account-box-48px" transform="translate(212.000000, 8.000000)">
                        <path d="M2,5 L2,19 C2,20.105 2.895,21 4,21 L18,21 C19.105,21 20,20.105 20,19 L20,5 C20,3.895 19.105,3 18,3 L4,3 C2.895,3 2,3.895 2,5 Z M14,9 C14,10.66 12.655,12 11,12 C9.345,12 8,10.66 8,9 C8,7.345 9.345,6 11,6 C12.655,6 14,7.345 14,9 Z M5,17 C5,15 9,13.9 11,13.9 C13,13.9 17,15 17,17 L17,18 L5,18 L5,17 Z" id="Shape" fill="#FFFFFF" fill-rule="nonzero"></path>
                        <polygon id="Shape" points="0 0 24 0 24 24 0 24"></polygon>
                    </g>
                </g>
            </g>
        </g>
    </g>
</svg>