<?xml version="1.0" encoding="UTF-8"?>
<svg width="18px" height="18px" viewBox="0 0 18 18" version="1.1" xmlns="http://www.w3.org/2000/svg" xmlns:xlink="http://www.w3.org/1999/xlink">
    <!-- Generator: Sketch 46.2 (44496) - http://www.bohemiancoding.com/sketch -->
    <title>Icon / Settings / Default</title>
    <desc>Created with Sketch.</desc>
    <defs>
        <path d="M8.70163111,13.7008107 C5.93863111,13.7008107 3.69963111,11.4608107 3.69963111,8.69881069 C3.69963111,5.93581069 5.93863111,3.69681069 8.70163111,3.69681069 C11.4646311,3.69681069 13.7036311,5.93581069 13.7036311,8.69881069 C13.7036311,11.4608107 11.4646311,13.7008107 8.70163111,13.7008107 M17.0696311,10.5838107 C16.2866311,10.3118107 15.7236311,9.57481069 15.7236311,8.69881069 C15.7236311,7.82281069 16.2866311,7.08581069 17.0686311,6.81381069 C17.3056311,6.73181069 17.4516311,6.48081069 17.3836311,6.23981069 C17.1846311,5.53581069 16.9016311,4.86881069 16.5476311,4.24681069 C16.4296311,4.03881069 16.1706311,3.96181069 15.9496311,4.05181069 C15.5646311,4.20981069 15.1196311,4.25081069 14.6586311,4.13281069 C13.9846311,3.95881069 13.4336311,3.40981069 13.2556311,2.73681069 C13.1336311,2.27381069 13.1746311,1.82681069 13.3316311,1.43981069 C13.4206311,1.21981069 13.3436311,0.960810692 13.1356311,0.842810692 C12.5186311,0.493810692 11.8566311,0.213810692 11.1606311,0.0168106925 C10.9186311,-0.0511893075 10.6686311,0.0938106925 10.5866311,0.330810692 C10.3146311,1.11381069 9.57763111,1.67681069 8.70163111,1.67681069 C7.82663111,1.67681069 7.08863111,1.11381069 6.81763111,0.331810692 C6.73463111,0.0948106925 6.48363111,-0.0511893075 6.24263111,0.0168106925 C5.53463111,0.216810692 4.86363111,0.501810692 4.23863111,0.858810692 C4.03763111,0.973810692 3.95263111,1.22581069 4.04063111,1.44081069 C4.18763111,1.80181069 4.23263111,2.21381069 4.13863111,2.64381069 C3.98363111,3.34981069 3.42463111,3.94081069 2.72563111,4.12781069 C2.26763111,4.25081069 1.82763111,4.21181069 1.44563111,4.05981069 C1.22563111,3.97181069 0.967631109,4.04981069 0.850631109,4.25581069 C0.497631109,4.87781069 0.215631109,5.54581069 0.0176311095,6.24981069 C-0.0503688905,6.48881069 0.0926311095,6.73681069 0.325631109,6.82181069 C1.09663111,7.09981069 1.64863111,7.83181069 1.64863111,8.69881069 C1.64863111,9.56581069 1.09663111,10.2978107 0.324631109,10.5758107 C0.0916311095,10.6598107 -0.0503688905,10.9078107 0.0166311095,11.1468107 C0.193631109,11.7738107 0.438631109,12.3728107 0.739631109,12.9368107 C0.858631109,13.1588107 1.13463111,13.2348107 1.36363111,13.1298107 C1.95863111,12.8568107 2.70663111,12.8658107 3.46763111,13.3678107 C3.58463111,13.4448107 3.69263111,13.5528107 3.76963111,13.6688107 C4.29663111,14.4678107 4.28163111,15.2488107 3.96763111,15.8558107 C3.85263111,16.0788107 3.91963111,16.3568107 4.13563111,16.4838107 C4.78963111,16.8678107 5.49763111,17.1708107 6.24463111,17.3808107 C6.48563111,17.4488107 6.73363111,17.3048107 6.81463111,17.0678107 C7.08363111,16.2818107 7.82363111,15.7148107 8.70163111,15.7148107 C9.57963111,15.7148107 10.3196311,16.2818107 10.5886311,17.0678107 C10.6696311,17.3038107 10.9176311,17.4488107 11.1586311,17.3808107 C11.8956311,17.1738107 12.5946311,16.8748107 13.2426311,16.4978107 C13.4606311,16.3708107 13.5266311,16.0898107 13.4096311,15.8668107 C13.0916311,15.2588107 13.0726311,14.4738107 13.6006311,13.6718107 C13.6776311,13.5558107 13.7856311,13.4468107 13.9026311,13.3698107 C14.6746311,12.8588107 15.4296311,12.8568107 16.0276311,13.1398107 C16.2566311,13.2478107 16.5356311,13.1728107 16.6556311,12.9498107 C16.9596311,12.3858107 17.2046311,11.7858107 17.3836311,11.1568107 C17.4516311,10.9158107 17.3066311,10.6658107 17.0696311,10.5838107" id="path-1"></path>
    </defs>
    <g id="Page-1" stroke="none" stroke-width="1" fill="none" fill-rule="evenodd">
        <g id="Artboard" transform="translate(-4.000000, -26.000000)">
            <g id="Icon-/-Settings-/-Default" transform="translate(4.000000, 26.000000)">
                <mask id="mask-2" fill="white">
                    <use xlink:href="#path-1"></use>
                </mask>
                <use id="Fill-1" fill="#54E70A" xlink:href="#path-1"></use>
                <g id="color" mask="url(#mask-2)" fill="#FFFFFF">
                    <rect id="color-swatch" x="0" y="0" width="18" height="18"></rect>
                </g>
            </g>
        </g>
    </g>
</svg>