<?xml version="1.0" encoding="UTF-8"?>
<svg width="46px" height="60px" viewBox="0 0 46 60" version="1.1" xmlns="http://www.w3.org/2000/svg" xmlns:xlink="http://www.w3.org/1999/xlink">
    <!-- Generator: Sketch 46.2 (44496) - http://www.bohemiancoding.com/sketch -->
    <title>hourglass</title>
    <desc>Created with Sketch.</desc>
    <defs></defs>
    <g id="Page-1" stroke="none" stroke-width="1" fill="none" fill-rule="evenodd">
        <g id="hourglass" fill-rule="nonzero" fill="#32A675">
            <path d="M43,54 L38,54 L38,48 C38,40.409 33.853,33.56 27.286,30 C33.853,26.44 38,19.591 38,12 L38,6 L43,6 C44.654,6 46,4.654 46,3 C46,1.346 44.654,0 43,0 L3,0 C1.346,0 0,1.346 0,3 C0,4.654 1.346,6 3,6 L8,6 L8,12 C8,19.591 12.147,26.44 18.714,30 C12.147,33.56 8,40.409 8,48 L8,54 L3,54 C1.346,54 0,55.346 0,57 C0,58.654 1.346,60 3,60 L43,60 C44.654,60 46,58.654 46,57 C46,55.346 44.654,54 43,54 Z M10,12 L10,6 L36,6 L36,12 C36,19.427 31.609,26.078 24.797,29 L21.202,29 C14.391,26.078 10,19.427 10,12 Z M10,48 C10,40.573 14.391,33.922 21.203,31 L24.798,31 C31.609,33.922 36,40.573 36,48 L36,54 C36,53.448 35.552,53 35,53 C34.448,53 34,53.448 34,54 L32,54 C32,53.448 31.552,53 31,53 C30.448,53 30,53.448 30,54 L28,54 C28,53.448 27.552,53 27,53 C26.448,53 26,53.448 26,54 L24,54 C24,53.448 23.552,53 23,53 C22.448,53 22,53.448 22,54 L20,54 C20,53.448 19.552,53 19,53 C18.448,53 18,53.448 18,54 L16,54 C16,53.448 15.552,53 15,53 C14.448,53 14,53.448 14,54 L12,54 C12,53.448 11.552,53 11,53 C10.448,53 10,53.448 10,54 L10,48 Z" id="Shape"></path>
            <circle id="Oval" cx="13" cy="52" r="1"></circle>
            <circle id="Oval" cx="17" cy="52" r="1"></circle>
            <circle id="Oval" cx="21" cy="52" r="1"></circle>
            <circle id="Oval" cx="25" cy="52" r="1"></circle>
            <circle id="Oval" cx="29" cy="52" r="1"></circle>
            <circle id="Oval" cx="33" cy="52" r="1"></circle>
            <circle id="Oval" cx="15" cy="50" r="1"></circle>
            <circle id="Oval" cx="19" cy="50" r="1"></circle>
            <circle id="Oval" cx="23" cy="33" r="1"></circle>
            <circle id="Oval" cx="17" cy="22" r="1"></circle>
            <circle id="Oval" cx="21" cy="22" r="1"></circle>
            <circle id="Oval" cx="25" cy="22" r="1"></circle>
            <circle id="Oval" cx="29" cy="22" r="1"></circle>
            <circle id="Oval" cx="27" cy="20" r="1"></circle>
            <circle id="Oval" cx="29" cy="18" r="1"></circle>
            <circle id="Oval" cx="19" cy="20" r="1"></circle>
            <circle id="Oval" cx="23" cy="20" r="1"></circle>
            <circle id="Oval" cx="17" cy="18" r="1"></circle>
            <circle id="Oval" cx="19" cy="24" r="1"></circle>
            <circle id="Oval" cx="21" cy="26" r="1"></circle>
            <circle id="Oval" cx="25" cy="26" r="1"></circle>
            <circle id="Oval" cx="23" cy="24" r="1"></circle>
            <circle id="Oval" cx="27" cy="24" r="1"></circle>
            <circle id="Oval" cx="23" cy="36" r="1"></circle>
            <circle id="Oval" cx="23" cy="39" r="1"></circle>
            <circle id="Oval" cx="23" cy="42" r="1"></circle>
            <circle id="Oval" cx="23" cy="45" r="1"></circle>
            <circle id="Oval" cx="23" cy="48" r="1"></circle>
            <circle id="Oval" cx="27" cy="50" r="1"></circle>
            <circle id="Oval" cx="31" cy="50" r="1"></circle>
        </g>
    </g>
</svg>