<?xml version="1.0" encoding="UTF-8"?>
<svg width="18px" height="18px" viewBox="0 0 18 18" version="1.1" xmlns="http://www.w3.org/2000/svg" xmlns:xlink="http://www.w3.org/1999/xlink">
    <!-- Generator: Sketch 46.2 (44496) - http://www.bohemiancoding.com/sketch -->
    <title>Icon / Issues / Default</title>
    <desc>Created with Sketch.</desc>
    <defs>
        <path d="M15.9999823,16 C15.9953975,17.1053568 15.1000963,18 13.9941413,18 L4.00585866,18 C2.90090142,18 2.00461875,17.1026811 2.00001779,16 L15.9999836,16 Z M16.9999647,13 C16.9953929,14.1053568 16.1026487,15 15.005922,15 L2.99404259,15 C1.89558466,15 1.0045739,14.1026811 1,13 L16.9999659,13 Z M0,2.0085302 C0,0.899249601 0.892622799,0 1.99508929,0 L16.0049107,0 C17.1067681,0 18,0.901950359 18,2.0085302 L18,9.9914698 C18,11.1007504 17.1073772,12 16.0049107,12 L1.99508929,12 C0.893231902,12 0,11.0980496 0,9.9914698 L0,2.0085302 Z M2,9.9914698 C2,9.99782016 16.0049107,10 16.0049107,10 C15.9994849,10 16,2.0085302 16,2.0085302 C16,2.00217984 1.99508929,2 1.99508929,2 C2.00051505,2 2,9.9914698 2,9.9914698 Z M7.67417267,8.33111181 L6.26884189,6.92578103 C5.91038604,6.56732518 5.91038604,5.98552375 6.26884189,5.62614878 C6.62821687,5.26769292 7.21001829,5.26769292 7.56847415,5.62614878 L8.32306968,6.38074431 L10.4306063,4.27045035 C10.7890621,3.90923714 11.3727018,3.91107537 11.7302385,4.26861211 C12.0896135,4.62706797 12.0896135,5.2088694 11.7320768,5.56824437 L8.97472405,8.3301927 C8.61534907,8.69048679 8.03354764,8.69048679 7.67417267,8.33111181 Z" id="path-1"></path>
    </defs>
    <g id="Page-1" stroke="none" stroke-width="1" fill="none" fill-rule="evenodd">
        <g id="Artboard" transform="translate(-6.000000, -4.000000)">
            <g id="Icon-/-Issues-/-Default" transform="translate(6.000000, 4.000000)">
                <mask id="mask-2" fill="white">
                    <use xlink:href="#path-1"></use>
                </mask>
                <g id="Combined-Shape" fill-rule="nonzero"></g>
                <g id="color" mask="url(#mask-2)" fill="#42526E">
                    <rect id="color-swatch" x="0" y="0" width="18" height="18"></rect>
                </g>
            </g>
        </g>
    </g>
</svg>