<?xml version="1.0" encoding="UTF-8"?>
<svg width="25px" height="22px" viewBox="0 0 25 22" version="1.1" xmlns="http://www.w3.org/2000/svg" xmlns:xlink="http://www.w3.org/1999/xlink">
    <!-- Generator: Sketch 46.2 (44496) - http://www.bohemiancoding.com/sketch -->
    <title>jira</title>
    <desc>Created with Sketch.</desc>
    <defs></defs>
    <g id="Page-1" stroke="none" stroke-width="1" fill="none" fill-rule="evenodd">
        <g id="Issues-Picker-View-(Filters-Opened)" transform="translate(-284.000000, -638.000000)" fill-rule="nonzero" fill="#0045C9">
            <g id="Filters-Container" transform="translate(0.000000, 115.000000)">
                <g id="Filter-Status" transform="translate(13.000000, 426.000000)">
                    <g id="Subitems" transform="translate(8.000000, 22.000000)">
                        <g id="Item" transform="translate(0.000000, 23.000000)">
                            <g id="Issue-Label" transform="translate(19.000000, 0.000000)">
                                <g id="jira" transform="translate(244.000000, 52.000000)">
                                    <path d="M23.955026,0.238804228 C23.8473624,0.08885924 23.6785328,0.000431293605 23.4990932,4.61854664e-08 C23.4072737,2.01221393e-05 23.3169243,0.0240851802 23.2363077,0.0699943754 C19.8949901,1.98042783 16.020218,2.99191451 12.0324481,2.99191451 C8.04467828,2.99191451 4.16990618,1.98042783 0.828588622,0.0699943754 C0.747992708,0.0240302109 0.657629622,-3.84830439e-05 0.565803129,4.61854665e-08 C0.386363462,0.000431293605 0.217533907,0.08885924 0.109870297,0.238804228 C-0.0710220935,0.493652829 -0.0237392006,0.852786069 0.216298422,1.04717011 C1.88134192,2.34808552 3.73211997,3.36701908 5.70063168,4.06653333 C7.73957749,4.7888138 9.87812352,5.15693735 12.0311342,5.15624897 L12.0311342,5.15624897 C14.1841469,5.15696212 16.3226967,4.78883792 18.3616368,4.06653333 C20.33099,3.36709276 22.1826447,2.34816481 23.8485979,1.04717011 C24.0867924,0.852563692 24.1328616,0.495008657 23.9523981,0.241549104 L23.955026,0.238804228 Z" id="Shape"></path>
                                    <path d="M20.1127997,5.25023031 C19.9892634,5.15669673 19.8257947,5.13348152 19.6808554,5.1888872 C18.752078,5.53727891 17.8006843,5.82289196 16.8331735,6.04377524 C16.6537555,6.08565351 16.5065029,6.21252124 16.4393033,6.38312011 C15.7828529,8.16337551 14.1167818,9.85748952 12.3693108,11.6325242 C12.2854858,11.7267836 12.1662659,11.7825013 12.0397727,11.7865346 C11.9130915,11.7832847 11.7935728,11.7274273 11.7102346,11.6325242 C9.95751205,9.85879469 8.28618933,8.16990137 7.62973893,6.38964597 C7.56253933,6.2190471 7.4152867,6.09217937 7.23586869,6.0503011 C6.26774376,5.82629464 5.31591885,5.53763148 4.38687395,5.18627685 C4.33575586,5.16669637 4.28148085,5.15652443 4.22670005,5.15625788 C4.12900332,5.15567568 4.03387614,5.18735111 3.95624249,5.24631479 C3.8350301,5.33886767 3.76968818,5.48649788 3.78293958,5.63786657 C3.93129737,7.11793227 4.51947693,8.56536867 5.58161368,10.0754533 C6.57941829,11.5007018 7.88181588,12.8163158 9.13957485,14.0966901 C11.4581577,16.4460007 13.6493891,18.6647941 13.8410726,21.2438151 C13.8582633,21.4762892 14.0529772,21.6561934 14.2874589,21.6562497 L17.011728,21.6562497 C17.1344354,21.6564013 17.2518271,21.6064774 17.3364592,21.5181492 C17.4210912,21.429821 17.4655447,21.3108314 17.4594272,21.1889979 C17.3740887,19.4674752 16.721577,17.7433423 15.4664438,15.918711 C15.2038636,15.5362954 14.92159,15.1643212 14.6275002,14.8001781 C14.5267564,14.6727898 14.5362938,14.4909723 14.6498195,14.3746918 L14.9229029,14.0979952 C16.1819747,12.8215365 17.4830594,11.502007 18.480864,10.0767585 C19.5430008,8.56014798 20.1311803,7.12184779 20.2795381,5.63917174 C20.2928666,5.48593718 20.2277316,5.3363217 20.1062352,5.2410941 L20.1127997,5.25023031 Z" id="Shape"></path>
                                    <path d="M9.04829625,16.2906322 C8.96602427,16.201097 8.84968188,16.1521847 8.72928621,16.156515 C8.57773746,16.1597006 8.43797289,16.2403801 8.35754723,16.3711025 C7.20805651,18.1481548 6.6135378,19.8326663 6.53180796,21.518519 C6.52566628,21.6440688 6.57043915,21.7666812 6.65566143,21.857697 C6.7408837,21.9487128 6.85908617,22.000155 6.98264033,21.9999996 L9.71268079,21.9999996 C9.94837824,21.9994011 10.1443292,21.8151951 10.1635132,21.5761894 C10.2407673,20.7012197 10.5005209,19.853069 10.9254462,19.0883161 C11.0421248,18.8656535 11.0204932,18.5942189 10.8700809,18.3935892 C10.3008294,17.6594444 9.69266556,16.9574172 9.04829625,16.2906322 L9.04829625,16.2906322 Z" id="Shape"></path>
                                    <path d="M11.861297,6.58350577 C12.6941715,6.58350577 13.17852,6.53125212 13.3476576,6.53125212 C13.5699871,6.53345121 13.7493086,6.72215284 13.75,6.95464067 C13.7497407,7.01253764 13.7388665,7.06984555 13.7179664,7.12346015 C13.3556138,8.01317476 12.8297101,8.81983173 12.1701012,9.49765162 C12.0883616,9.58112283 11.9780964,9.62695287 11.8638597,9.62493615 L11.8638597,9.62493615 C11.749623,9.62695287 11.6393578,9.58112283 11.5576182,9.49765162 C10.8946595,8.82078749 10.3656521,8.01404477 10.0007836,7.12346015 C9.97982209,7.06986483 9.96894548,7.01254433 9.96875,6.95464067 C9.9690893,6.84199552 10.0122096,6.73410503 10.0886247,6.65470416 C10.1650399,6.57530328 10.2684903,6.53089622 10.3762178,6.53125212 C10.5453554,6.53125212 11.0297039,6.58350577 11.8625784,6.58350577 L11.861297,6.58350577 Z" id="Shape"></path>
                                </g>
                            </g>
                        </g>
                    </g>
                </g>
            </g>
        </g>
    </g>
</svg>