<?xml version="1.0" encoding="UTF-8"?>
<svg width="16px" height="13px" viewBox="0 0 16 13" version="1.1" xmlns="http://www.w3.org/2000/svg" xmlns:xlink="http://www.w3.org/1999/xlink">
    <!-- Generator: Sketch 46.2 (44496) - http://www.bohemiancoding.com/sketch -->
    <title>Issue Link</title>
    <desc>Created with Sketch.</desc>
    <defs></defs>
    <g id="Symbols" stroke="none" stroke-width="1" fill="none" fill-rule="evenodd">
        <g id="Issue-Container" transform="translate(-81.000000, -18.000000)" fill-rule="nonzero" fill="#0045C9">
            <g id="Issue-Content">
                <g transform="translate(8.000000, 13.000000)">
                    <g id="Issue-Link" transform="translate(73.000000, 5.000000)">
                        <path d="M11.7271913,7.54535685 L11.1816934,7.54535685 C11.1020209,7.54535685 11.0366471,7.57087987 10.985781,7.62216473 C10.9344969,7.67315107 10.9089742,7.73849598 10.9089742,7.81808005 L10.9089742,10.5453419 C10.9089742,10.9203662 10.7755401,11.2413294 10.5085225,11.5084107 C10.2415049,11.7754322 9.92042707,11.9088385 9.54540841,11.9088385 L2.45447218,11.9088385 C2.07948338,11.9088385 1.75843541,11.7754322 1.49135812,11.5084107 C1.22434054,11.2413592 1.09084668,10.920396 1.09084668,10.5453419 L1.09084668,3.45438941 C1.09084668,3.07939501 1.22431069,2.75846165 1.49135812,2.49141023 C1.75843541,2.22432896 2.07948338,2.09086296 2.45447218,2.09086296 L8.45435278,2.09086296 C8.53402521,2.09086296 8.599399,2.06522053 8.65047413,2.01414463 C8.70154927,1.96300903 8.72707191,1.89772382 8.72707191,1.8181099 L8.72707191,1.27257394 C8.72707191,1.19310928 8.70154927,1.12770467 8.65047413,1.07665862 C8.599399,1.02552302 8.53402521,1 8.45435278,1 L2.45447218,1 C1.77840576,1 1.20025075,1.24006567 0.720066866,1.72016717 C0.24006209,2.20023881 0,2.77840245 0,3.45447897 L0,10.5454613 C0,11.221508 0.24006209,11.7997612 0.720096717,12.2796836 C1.2002806,12.7598149 1.77843561,13 2.45450203,13 L9.54540841,13 C10.221445,13 10.7996597,12.7598149 11.2797839,12.2796836 C11.7599379,11.7997612 12,11.2215378 12,10.5454613 L12,7.81828901 C12,7.73861539 11.9744475,7.67324063 11.9231634,7.62216473 C11.8720286,7.57087987 11.8066548,7.54535685 11.7271913,7.54535685 Z" id="Shape"></path>
                        <path d="M15.8454339,0.154456573 C15.7424373,0.0514570479 15.6203335,0 15.4795212,0 L11.3170009,0 C11.1761032,0 11.0540848,0.0514570479 10.9511737,0.154456573 C10.8481771,0.257399146 10.7966076,0.379364025 10.7966076,0.520294257 C10.7966076,0.66122449 10.8481771,0.783217845 10.9511737,0.886217371 L12.381992,2.31710489 L7.08132659,7.61803512 C7.02705191,7.67222591 7,7.73458946 7,7.80492644 C7,7.8755197 7.02713734,7.93785477 7.08132659,7.99204556 L8.00815354,8.918785 C8.06234279,8.97297579 8.12470456,9 8.19515344,9 C8.26560231,9 8.32799256,8.97300427 8.38215333,8.918785 L13.6828472,3.6179402 L15.1137794,5.04882772 C15.2166906,5.15182724 15.3386804,5.20334124 15.4796067,5.20334124 C15.6205329,5.20334124 15.7425228,5.15182724 15.8455478,5.04882772 C15.9485444,4.94585667 16,4.82392027 16,4.68299003 L16,0.520294257 C15.9999715,0.379278595 15.9483451,0.257399146 15.8454339,0.154456573 Z" id="Shape"></path>
                    </g>
                </g>
            </g>
        </g>
    </g>
</svg>