<?xml version="1.0" encoding="UTF-8"?>
<svg width="16px" height="21px" viewBox="0 0 16 21" version="1.1" xmlns="http://www.w3.org/2000/svg" xmlns:xlink="http://www.w3.org/1999/xlink">
    <!-- Generator: Sketch 46.2 (44496) - http://www.bohemiancoding.com/sketch -->
    <title>ic-lock-48px</title>
    <desc>Created with Sketch.</desc>
    <defs></defs>
    <g id="Page-1" stroke="none" stroke-width="1" fill="none" fill-rule="evenodd">
        <g id="Login-View" transform="translate(-39.000000, -395.000000)">
            <g id="Form" transform="translate(-176.000000, 325.000000)">
                <g id="Field-Copy" transform="translate(207.000000, 60.000000)">
                    <g id="ic-lock-48px" transform="translate(4.000000, 8.000000)">
                        <polygon id="Shape" points="0 0 24 0 24 24 0 24"></polygon>
                        <path d="M18,9 L17,9 L17,7 C17,4.24 14.76,2 12,2 C9.24,2 7,4.24 7,7 L7,9 L6,9 C4.895,9 4,9.895 4,11 L4,21 C4,22.105 4.895,23 6,23 L18,23 C19.105,23 20,22.105 20,21 L20,11 C20,9.895 19.105,9 18,9 Z M12,18 C10.895,18 10,17.105 10,16 C10,14.895 10.895,14 12,14 C13.105,14 14,14.895 14,16 C14,17.105 13.105,18 12,18 Z M15.1,9 L8.9,9 L8.9,7 C8.9,5.29 10.29,3.9 12,3.9 C13.71,3.9 15.1,5.29 15.1,7 L15.1,9 Z" id="Shape" fill="#FFFFFF" fill-rule="nonzero"></path>
                    </g>
                </g>
            </g>
        </g>
    </g>
</svg>