<?xml version="1.0" encoding="UTF-8"?>
<svg width="18px" height="17px" viewBox="0 0 18 17" version="1.1" xmlns="http://www.w3.org/2000/svg" xmlns:xlink="http://www.w3.org/1999/xlink">
    <!-- Generator: Sketch 46.2 (44496) - http://www.bohemiancoding.com/sketch -->
    <title>Combined Shape</title>
    <desc>Created with Sketch.</desc>
    <defs>
        <path d="M8,10 C6.343,10 5,8.657 5,7 C5,5.343 6.343,4 8,4 C9.657,4 11,5.343 11,7 C11,8.657 9.657,10 8,10 Z M16,12 C14.343,12 13,10.657 13,9 C13,7.343 14.343,6 16,6 C17.657,6 19,7.343 19,9 C19,10.657 17.657,12 16,12 Z M19,14 C20.105,14 21,14.895 21,16 L21,18.913 C19.73,20.2 17.968,21 16.021,21 C14.052,21 12.273,20.18 11,18.867 L11,16 C11,14.895 11.895,14 13,14 L19,14 Z M11,12 C11.749,12 12.394,12.417 12.737,13.027 C11.208,13.162 10,14.436 10,16 L10,17.709 C9.372,17.895 8.709,18 8.021,18 C6.052,18 4.273,17.18 3,15.867 L3,14 C3,12.895 3.895,12 5,12 L11,12 Z" id="path-1"></path>
    </defs>
    <g id="Page-1" stroke="none" stroke-width="1" fill="none" fill-rule="evenodd">
        <g id="Icon-/-global-/-Lock-small-/-Active" transform="translate(-3.000000, -4.000000)">
            <mask id="mask-2" fill="white">
                <use xlink:href="#path-1"></use>
            </mask>
            <use id="Combined-Shape" fill="#0052CC" xlink:href="#path-1"></use>
        </g>
    </g>
</svg>