<?xml version="1.0" encoding="UTF-8"?>
<svg width="20px" height="20px" viewBox="0 0 20 20" version="1.1" xmlns="http://www.w3.org/2000/svg" xmlns:xlink="http://www.w3.org/1999/xlink">
    <!-- Generator: Sketch 47.1 (45422) - http://www.bohemiancoding.com/sketch -->
    <title>Combined Shape</title>
    <desc>Created with Sketch.</desc>
    <defs></defs>
    <g id="Page-1" stroke="none" stroke-width="1" fill="none" fill-rule="evenodd">
        <g id="Artboard" transform="translate(-54.000000, -2.000000)" fill="#0065FF">
            <g id="Play" transform="translate(52.000000, 0.000000)">
                <path d="M11.8999996,21.7999992 C6.43238081,21.7999992 2,17.3676184 2,11.8999996 C2,6.43238081 6.43238081,2 11.8999996,2 C17.3676184,2 21.7999992,6.43238081 21.7999992,11.8999996 C21.7999992,17.3676184 17.3676184,21.7999992 11.8999996,21.7999992 Z M10.0190938,7.14178125 C9.7323125,6.92521875 9.5,7.04203125 9.5,7.40625 L9.5,16.5924375 C9.5,16.9553437 9.7401875,17.0813437 10.0427188,16.869375 L16.1760313,12.5742187 C16.4759375,12.3642187 16.4864375,12.0190312 16.1996563,11.8024687 L10.0184375,7.14178125 L10.0190938,7.14178125 Z" id="Combined-Shape"></path>
            </g>
        </g>
    </g>
</svg>