<?xml version="1.0" encoding="utf-8"?>
<!-- Generator: Adobe Illustrator 18.1.1, SVG Export Plug-In . SVG Version: 6.00 Build 0)  -->
<svg version="1.1" id="Default" xmlns="http://www.w3.org/2000/svg" xmlns:xlink="http://www.w3.org/1999/xlink" x="0px" y="0px"
	 viewBox="0 0 128 128" enable-background="new 0 0 128 128" xml:space="preserve">
<circle fill="#4AC6C6" cx="63.964" cy="63.964" r="63.964"/>
<path fill="#4A2593" d="M40.282,109.662h-2.119c-1.752,0-3.186-1.434-3.186-3.186V93.928c0-1.752,1.434-3.186,3.186-3.186h2.119
	c1.752,0,3.186,1.434,3.186,3.186v12.548C43.468,108.228,42.034,109.662,40.282,109.662z"/>
<path fill="#4A2593" d="M89.032,109.662h-2.119c-1.752,0-3.186-1.434-3.186-3.186l0-12.548c0-1.752,1.434-3.186,3.186-3.186h2.119
	c1.752,0,3.186,1.434,3.186,3.186v12.548C92.218,108.228,90.784,109.662,89.032,109.662z"/>
<ellipse fill="#4A2593" cx="63.842" cy="74.704" rx="43.622" ry="30.013"/>
<ellipse fill="#7F4CBF" cx="63.964" cy="67.657" rx="50.305" ry="30.013"/>
<path fill="#FFFFFF" d="M94.762,48.578c0.039-0.622,0.065-1.253,0.065-1.901c0-17.247-13.981-31.228-31.228-31.228
	c-16.905,0-30.663,13.435-31.202,30.208h-0.026v8.268h0.022c0.266,9.711,5.062,16.441,12.376,20.366l37.665,0.002
	c7.529-4.037,12.393-11.044,12.393-21.217c0-0.648-0.026-1.29-0.065-1.928V48.578z"/>
<path opacity="0.15" fill="#7F4CBF" d="M32.477,44.258c-0.036,0.464-0.065,0.93-0.08,1.399h-0.026v8.268h0.022
	c0.456,16.661,14.247,24.547,31.206,24.547c17.247,0,31.228-8.149,31.228-25.395c0-0.648-0.026-1.29-0.065-1.928v-2.57
	c0.039-0.622,0.065-1.253,0.065-1.901c0-0.935-0.049-1.858-0.129-2.771c-8.501-3.921-19.157-6.261-30.734-6.261
	C52.042,37.644,41.097,40.123,32.477,44.258z"/>
<path fill="#59AFE1" d="M63.599,28.253L63.599,28.253c-10.359,0-18.834,8.475-18.834,18.834v6.092v15.018v6.092
	c5.236,2.808,11.759,4.182,18.834,4.182c7.075,0,13.598-1.374,18.834-4.182v-6.092V53.179v-6.092
	C82.433,36.728,73.958,28.253,63.599,28.253z"/>
<circle fill="#FFFFFF" cx="63.86" cy="50.735" r="11.139"/>
<circle fill="#2A5083" cx="63.472" cy="50.608" r="4.418"/>
</svg>
