<?xml version="1.0" encoding="UTF-8"?>
<svg width="16px" height="16px" viewBox="0 0 16 16" version="1.1" xmlns="http://www.w3.org/2000/svg" xmlns:xlink="http://www.w3.org/1999/xlink">
    <!-- Generator: Sketch 48.2 (47327) - http://www.bohemiancoding.com/sketch -->
    <title>atlaskit-by-atlassian</title>
    <desc>Created with Sketch.</desc>
    <defs></defs>
    <g id="Page-1" stroke="none" stroke-width="1" fill="none" fill-rule="evenodd">
        <g id="atlaskit-by-atlassian" transform="translate(-1.000000, 0.000000)" fill="#FFFFFF">
            <path d="M5,2.003 L5,4.998 C5,5.55028475 5.44771525,5.998 6,5.998 C6.55228475,5.998 7,5.55028475 7,4.998 L7,1.102 C7,0.494 6.507,0 5.9,0 L2,0 C1.44688682,0 0.9985,0.448386823 0.9985,1.0015 C0.9985,1.55461318 1.44688682,2.003 2,2.003 L5,2.003 Z" id="Shape" fill-rule="nonzero"></path>
            <path d="M6.428,14.018 C4.351,12.989 3,10.807 3,8.37 C3,6.104 4.167,4.051 6.02,2.945 C6.5,2.659 6.666,2.023 6.391,1.524 C6.26601663,1.28709183 6.04942282,1.11173926 5.7916892,1.03880291 C5.53395559,0.965866569 5.25759322,1.00171687 5.027,1.138 C2.557,2.611 1,5.35 1,8.37 C1,11.618 2.802,14.528 5.57,15.899 C6.068,16.146 6.665,15.925 6.902,15.406 C7.139,14.886 6.927,14.265 6.428,14.018 Z" id="Shape" fill-rule="nonzero"></path>
            <path d="M11,11.002 L11,14.898 C11,15.506 11.493,16 12.1,16 L16,16 C16.5531132,16 17.0015,15.5516132 17.0015,14.9985 C17.0015,14.4453868 16.5531132,13.997 16,13.997 L13,13.997 L13,11.002 C13,10.4497153 12.5522847,10.002 12,10.002 C11.4477153,10.002 11,10.4497153 11,11.002 Z" id="Shape"></path>
            <path d="M11.097,0.596 C10.86,1.116 11.072,1.736 11.571,1.983 C13.648,3.012 14.999,5.193 14.999,7.63 C14.999,9.896 13.832,11.95 11.978,13.055 C11.4953479,13.353649 11.3324582,13.9787934 11.608,14.475 C11.882,14.975 12.493,15.148 12.972,14.862 C15.442,13.389 16.999,10.65 16.999,7.63 C16.999,4.382 15.197,1.472 12.429,0.102 C12.2964936,0.0353713216 12.1503143,0.000452613471 12.002,0 C11.609508,0.00383879702 11.2555556,0.23693893 11.097,0.596 Z" id="Shape"></path>
        </g>
    </g>
</svg>