<?xml version="1.0" encoding="iso-8859-1"?>
<!-- Generator: Adobe Illustrator 19.0.0, SVG Export Plug-In . SVG Version: 6.00 Build 0)  -->
<svg xmlns="http://www.w3.org/2000/svg" xmlns:xlink="http://www.w3.org/1999/xlink" version="1.1" id="Capa_1" x="0px" y="0px" viewBox="0 0 508.52 508.52" style="enable-background:new 0 0 508.52 508.52;" xml:space="preserve" width="512px" height="512px">
<g>
	<g>
		<g>
			<g>
				<path d="M254.26,0C113.845,0,0,113.845,0,254.26s113.845,254.26,254.26,254.26      s254.26-113.845,254.26-254.26S394.675,0,254.26,0z M254.26,476.737c-122.68,0-222.477-99.829-222.477-222.477      c0-122.68,99.797-222.477,222.477-222.477c122.649,0,222.477,99.797,222.477,222.477      C476.737,376.908,376.908,476.737,254.26,476.737z" fill="#FFFFFF"/>
				<path d="M317.825,158.912h-127.13c-17.544,0-31.782,14.239-31.782,31.782v127.13      c0,17.544,14.239,31.783,31.782,31.783h127.13c17.544,0,31.783-14.239,31.783-31.783v-127.13      C349.607,173.151,335.369,158.912,317.825,158.912z" fill="#FFFFFF"/>
			</g>
		</g>
	</g>
</g>
<g>
</g>
<g>
</g>
<g>
</g>
<g>
</g>
<g>
</g>
<g>
</g>
<g>
</g>
<g>
</g>
<g>
</g>
<g>
</g>
<g>
</g>
<g>
</g>
<g>
</g>
<g>
</g>
<g>
</g>
</svg>
