<svg id="Layer_1" data-name="Layer 1" xmlns="http://www.w3.org/2000/svg" xmlns:xlink="http://www.w3.org/1999/xlink" viewBox="0 0 1024 1024"><defs><style>.cls-1,.cls-10,.cls-2{stroke:#00aeef;}.cls-1,.cls-2{stroke-miterlimit:10;stroke-width:17.47px;}.cls-1{fill:url(#linear-gradient);}.cls-2{fill:url(#linear-gradient-2);}.cls-3{fill:url(#linear-gradient-3);}.cls-4{fill:url(#linear-gradient-4);}.cls-5{fill:url(#linear-gradient-5);}.cls-6{fill:url(#linear-gradient-6);}.cls-7{fill:url(#linear-gradient-7);}.cls-8{fill:url(#linear-gradient-8);}.cls-9{fill:url(#linear-gradient-9);}.cls-10,.cls-11{fill:none;stroke-linecap:round;stroke-linejoin:round;}.cls-10{stroke-width:17.84px;}.cls-11{stroke:#fff;stroke-width:14.33px;opacity:0.4;}</style><linearGradient id="linear-gradient" x1="886.08" y1="149.59" x2="-205.79" y2="1276.4" gradientUnits="userSpaceOnUse"><stop offset="0" stop-color="#313055"/><stop offset="1" stop-color="#0053a5"/></linearGradient><linearGradient id="linear-gradient-2" x1="896.96" y1="160.13" x2="-194.92" y2="1286.94" xlink:href="#linear-gradient"/><linearGradient id="linear-gradient-3" x1="527.32" y1="807.75" x2="509.48" y2="590.69" gradientUnits="userSpaceOnUse"><stop offset="0" stop-color="#1d165b"/><stop offset="1" stop-color="#0084c5"/></linearGradient><linearGradient id="linear-gradient-4" x1="329.08" y1="735.75" x2="517.63" y2="735.75" gradientUnits="userSpaceOnUse"><stop offset="0" stop-color="#2e2c7c"/><stop offset="1" stop-color="#0089d0"/></linearGradient><linearGradient id="linear-gradient-5" x1="479.3" y1="458.76" x2="670" y2="458.76" xlink:href="#linear-gradient-4"/><linearGradient id="linear-gradient-6" x1="484.49" y1="394.04" x2="670.14" y2="394.04" gradientTransform="translate(813.42 -263.85) rotate(75.43)" gradientUnits="userSpaceOnUse"><stop offset="0" stop-color="#0097dc"/><stop offset="1" stop-color="#8bceac"/></linearGradient><linearGradient id="linear-gradient-7" x1="337.89" y1="700.9" x2="517.84" y2="700.9" gradientTransform="translate(955.76 71.89) rotate(71.41)" xlink:href="#linear-gradient-6"/><linearGradient id="linear-gradient-8" x1="497.2" y1="489.25" x2="507.03" y2="654.12" gradientUnits="userSpaceOnUse"><stop offset="0" stop-color="#2e2c7c"/><stop offset="1" stop-color="#00aeef"/></linearGradient><linearGradient id="linear-gradient-9" x1="486.13" y1="489.91" x2="495.96" y2="654.78" xlink:href="#linear-gradient-8"/></defs><title>Artboard 9</title><path class="cls-1" d="M936,343.5h0a40.35,40.35,0,0,0-56.9,0l-22.31,20.73a40.47,40.47,0,0,1-40.11-3.17,42.09,42.09,0,0,1-20.38-25.48c-1.5-8.25-1.25-15,6.94-24.89l8.75-8.75a40.23,40.23,0,1,0-56.9-56.9l-3.49,3.49c-14.55,11.58-33.41,4.5-45.73-7.82A40.35,40.35,0,0,1,698.09,195L806,87a40.23,40.23,0,1,0-56.9-56.9L588,191.23A365.63,365.63,0,0,0,502.16,181C300.7,181,137.39,344.35,137.39,545.8a365.77,365.77,0,0,0,9.69,83.8l-72.5,72.59a40.23,40.23,0,0,0,56.9,56.9L154,736.5a40.49,40.49,0,0,1,38.41,2q8.6,13.8,18.36,26.76A40.61,40.61,0,0,1,207.53,790L75.18,922.39a40.35,40.35,0,0,0,0,56.9h0a40.35,40.35,0,0,0,56.9,0l110.2-110.2a40.11,40.11,0,0,1,53.55,53.55L279.51,939a40.35,40.35,0,0,0,0,56.9h0a40.35,40.35,0,0,0,56.9,0L429,903.23a366.41,366.41,0,0,0,73.13,7.34c201.46,0,364.77-163.31,364.77-364.77a366.48,366.48,0,0,0-6.92-71l76-74.45A40.35,40.35,0,0,0,936,343.5Z"/><path class="cls-2" d="M901.26,212.69l50.07-50.07a40.23,40.23,0,0,0-56.9-56.9L844.36,155.8a40.23,40.23,0,0,0,56.9,56.9Z"/><path class="cls-3" d="M530.51,656.66c-2.5-52.86-20.18-84.58-11.05-109,13.52-22.32,49.37-28.11,92.39-58.93,43.46-31.14,58.15-71.1,58.15-71.1a94.58,94.58,0,1,0-170.24-82.44c-.44.91-.84,1.84-1.25,2.76-4.93,9.25-20.36,42.09-18.24,87.06,2.5,52.86,20.18,84.58,11.05,109-13.52,22.32-49.37,28.11-92.39,58.93-43.46,31.14-58.15,71.1-58.15,71.1A94.58,94.58,0,1,0,511,746.49c.44-.91.84-1.84,1.25-2.76C517.19,734.48,532.63,701.64,530.51,656.66Z"/><path class="cls-4" d="M517.63,731.09c-25,70.22-86.18,81.94-133.19,59.18s-69.1-72.56-46.33-119.57Z"/><path class="cls-5" d="M670,417.61c-8.16,21-25.65,49.71-51.12,68-43,30.82-86,39.69-99.54,62L491.19,534c9.13-24.44-8.56-56.16-11.05-109-1.48-31.31-1.6-39.31,4.48-55Z"/><ellipse class="cls-6" cx="577.31" cy="394.04" rx="19.35" ry="95.78" transform="translate(50.69 853.63) rotate(-75.43)"/><ellipse class="cls-7" cx="427.87" cy="700.9" rx="19.13" ry="94.71" transform="translate(-372.87 882.96) rotate(-71.41)"/><path class="cls-8" d="M523.95,522.62a11.26,11.26,0,0,0-20.19-6.8c-1.37,1.78-33.53,44.28-25.31,113.05a11.3,11.3,0,0,0,12.15,9.92l.41,0a11.3,11.3,0,0,0,9.88-12.56,159,159,0,0,1-.6-32.13,11.24,11.24,0,0,0,9,3.38l.42,0a11.3,11.3,0,0,0,9.87-12.57c-3.57-29.64,6-48.82,6.22-49.23A11.26,11.26,0,0,0,523.95,522.62Z"/><path class="cls-9" d="M494.21,648.78a11.3,11.3,0,0,0-9.78,12.64l2.35,18.41a11.3,11.3,0,0,0,12.14,9.83l.5-.05A11.3,11.3,0,0,0,509.2,677l-2.35-18.41A11.3,11.3,0,0,0,494.21,648.78Z"/><path class="cls-10" d="M406.27,262.46C278,304,197.48,425.21,209.15,565.4a295.74,295.74,0,0,0,63.65,160.47"/><path class="cls-10" d="M599.42,824.38c122.9-33.3,214-163.63,201.93-308.26a295.75,295.75,0,0,0-66-163.39"/><path class="cls-10" d="M648.14,745.54a249.89,249.89,0,0,0,78.39-320.71"/><path class="cls-10" d="M555.68,785.25a248,248,0,0,0,56.74-18.94"/><path class="cls-10" d="M293.32,409a250,250,0,0,0-14.06,237.58"/><path class="cls-10" d="M357,341.61c-18,12.16-25.54,18.82-39.69,35.05"/><path class="cls-10" d="M450.72,297.14a247.9,247.9,0,0,0-56.36,19.95"/><path class="cls-11" d="M511,699.87a147.14,147.14,0,0,0,2.45-34.53c-1-20.21-4.62-36.66-7.5-50.48"/><path class="cls-11" d="M424.84,782.72A77.58,77.58,0,0,0,497.47,739c.36-.75.69-1.51,1-2.26"/><path class="cls-11" d="M662.27,399.13A77.58,77.58,0,0,0,621,309.63"/><path class="cls-11" d="M613.3,468.3a144.13,144.13,0,0,0,34.65-38.17"/><path class="cls-11" d="M530.47,516.53c16-11.54,31-16.81,55.61-30.38"/></svg>