<?xml version="1.0" encoding="UTF-8"?>
<svg width="49px" height="49px" viewBox="0 0 49 49" version="1.1" xmlns="http://www.w3.org/2000/svg" xmlns:xlink="http://www.w3.org/1999/xlink">
    <!-- Generator: Sketch 46.2 (44496) - http://www.bohemiancoding.com/sketch -->
    <title>Shape</title>
    <desc>Created with Sketch.</desc>
    <defs></defs>
    <g id="Symbols" stroke="none" stroke-width="1" fill="none" fill-rule="evenodd">
        <g id="Profile-Header" transform="translate(-14.000000, -10.000000)" fill-rule="nonzero" fill="#EDECEF">
            <g id="Profile-Icon">
                <g transform="translate(10.000000, 6.000000)">
                    <path d="M21.375,27.90625 C19.73625,27.90625 18.40625,29.23625 18.40625,30.875 C18.40625,32.51375 19.73625,33.84375 21.375,33.84375 C23.01375,33.84375 24.34375,32.51375 24.34375,30.875 C24.34375,29.23625 23.01375,27.90625 21.375,27.90625 Z M35.625,27.90625 C33.98625,27.90625 32.65625,29.23625 32.65625,30.875 C32.65625,32.51375 33.98625,33.84375 35.625,33.84375 C37.26375,33.84375 38.59375,32.51375 38.59375,30.875 C38.59375,29.23625 37.26375,27.90625 35.625,27.90625 Z M28.5,4.75 C15.378125,4.75 4.75,15.378125 4.75,28.5 C4.75,41.621875 15.378125,52.25 28.5,52.25 C41.621875,52.25 52.25,41.621875 52.25,28.5 C52.25,15.378125 41.621875,4.75 28.5,4.75 Z M28.5,47.5 C18.02625,47.5 9.5,38.97375 9.5,28.5 C9.5,27.81125 9.5475,27.134375 9.61875,26.469375 C15.211875,23.9875 19.676875,19.40375 21.9925,13.715625 C26.29125,19.771875 33.356875,23.75 41.360625,23.75 C43.20125,23.75 44.994375,23.524375 46.704375,23.120625 C47.215,24.830625 47.5,26.635625 47.5,28.5 C47.5,38.97375 38.97375,47.5 28.5,47.5 Z" id="Shape"></path>
                </g>
            </g>
        </g>
    </g>
</svg>