<?xml version="1.0" encoding="UTF-8"?>
<svg width="6px" height="8px" viewBox="0 0 6 8" version="1.1" xmlns="http://www.w3.org/2000/svg" xmlns:xlink="http://www.w3.org/1999/xlink">
    <!-- Generator: Sketch 46.2 (44496) - http://www.bohemiancoding.com/sketch -->
    <title>Combined Shape</title>
    <desc>Created with Sketch.</desc>
    <defs>
        <path d="M1.9998,4.00000002 C1.99986667,4.00000001 1.99993333,4 2,4 L3,4 L5,4 L6,4 C6.552,4 7,4.448 7,5 L7,7.00104344 C7,7.55733967 6.55641359,8 6.00922203,8 L1.99077797,8 C1.45097518,8 1,7.55275191 1,7.00104344 L1,5 C1,4.44806667 1.44789179,4.00010822 1.9998,4.00000002 L1.9998,3 L2.9998,3 L2.9998,4 L1.9998,4 Z M4.0198,0 C5.1138,0 5.9998,0.886 5.9998,1.98 L5.9998,3 L4.9998,3 L4.9998,1.99 C4.9998,1.443 4.5568,1 4.0098,1 L3.9898,1 C3.4428,1 2.9998,1.443 2.9998,1.99 L2.9998,3 L1.9998,3 L1.9998,1.98 C1.9998,0.886 2.8858,0 3.9798,0 L4.0198,0 Z M4.9998,3 L5.9998,3 L5.9998,4 L4.9998,4 L4.9998,3 Z" id="path-1"></path>
    </defs>
    <g id="Page-1" stroke="none" stroke-width="1" fill="none" fill-rule="evenodd">
        <g id="Icon-/-global-/-Lock-small-/-Active" transform="translate(-1.000000, 0.000000)">
            <mask id="mask-2" fill="white">
                <use xlink:href="#path-1"></use>
            </mask>
            <use id="Combined-Shape" fill="#0052CC" xlink:href="#path-1"></use>
        </g>
    </g>
</svg>