<?xml version="1.0" encoding="iso-8859-1"?>
<!-- Generator: Adobe Illustrator 19.0.0, SVG Export Plug-In . SVG Version: 6.00 Build 0)  -->
<svg version="1.1" id="Layer_1" xmlns="http://www.w3.org/2000/svg" xmlns:xlink="http://www.w3.org/1999/xlink" x="0px" y="0px"
	 viewBox="0 0 511.999 511.999" style="enable-background:new 0 0 511.999 511.999;" xml:space="preserve">
<g>
	<g>
		<path d="M481.091,27.937H30.909C13.866,27.937,0,41.803,0,58.846v310.819c0,17.043,13.866,30.909,30.909,30.909h154.26v22.49
			c0,20.617-16.774,37.391-37.391,37.391h-33.997c-6.518,0-11.803,5.284-11.803,11.803c0,6.519,5.285,11.803,11.803,11.803h284.436
			c6.518,0,11.803-5.284,11.803-11.803c0-6.519-5.285-11.803-11.803-11.803h-33.998c-20.617,0-37.391-16.774-37.391-37.391v-22.489
			h154.26c17.043,0,30.91-13.866,30.91-30.909V58.846C512,41.803,498.134,27.937,481.091,27.937z M195.92,460.457
			c8.046-10.336,12.857-23.308,12.857-37.391v-22.49h94.447v22.49c0,14.083,4.811,27.056,12.857,37.391H195.92z M488.394,369.666
			c0,4.027-3.276,7.304-7.304,7.304H30.909c-4.027,0-7.304-3.276-7.304-7.304v-62.033h464.789V369.666z M488.394,284.026H23.606
			V58.846c0-4.027,3.276-7.304,7.304-7.304h450.18c4.027,0,7.305,3.276,7.305,7.304V284.026z"/>
	</g>
</g>
<g>
	<g>
		<circle cx="256.003" cy="342.305" r="12.738"/>
	</g>
</g>
<g>
	<g>
		<path d="M276.238,109.254c-4.61-4.609-12.081-4.609-16.693,0l-83.414,83.414c-4.609,4.609-4.609,12.083,0,16.693
			c2.306,2.305,5.325,3.457,8.347,3.457c3.022,0,6.041-1.152,8.346-3.457l83.414-83.414
			C280.847,121.338,280.847,113.864,276.238,109.254z"/>
	</g>
</g>
<g>
	<g>
		<path d="M325.678,157.593c-4.608-4.609-12.079-4.609-16.692-0.001l-33.23,33.228c-4.609,4.61-4.609,12.084,0,16.693
			c2.305,2.305,5.325,3.457,8.346,3.457c3.02,0,6.041-1.152,8.346-3.457l33.23-33.228
			C330.287,169.676,330.287,162.202,325.678,157.593z"/>
	</g>
</g>
<g>
</g>
<g>
</g>
<g>
</g>
<g>
</g>
<g>
</g>
<g>
</g>
<g>
</g>
<g>
</g>
<g>
</g>
<g>
</g>
<g>
</g>
<g>
</g>
<g>
</g>
<g>
</g>
<g>
</g>
</svg>
