<?xml version="1.0" encoding="iso-8859-1"?>
<!-- Generator: Adobe Illustrator 16.0.0, SVG Export Plug-In . SVG Version: 6.00 Build 0)  -->
<!DOCTYPE svg PUBLIC "-//W3C//DTD SVG 1.1//EN" "http://www.w3.org/Graphics/SVG/1.1/DTD/svg11.dtd">
<svg xmlns="http://www.w3.org/2000/svg" xmlns:xlink="http://www.w3.org/1999/xlink" version="1.1" id="Capa_1" x="0px" y="0px" width="512px" height="512px" viewBox="0 0 792 792" style="enable-background:new 0 0 792 792;" xml:space="preserve">
<g>
	<path d="M552.061,229.118c-13.685,0-24.723,10.595-24.723,24.29v358.911c0,36.646-13.242,66.662-38.851,92.271   s-56.067,38.851-93.146,38.851c-36.204,0-67.105-12.8-92.713-38.408c-25.608-25.607-38.408-56.509-38.408-92.713V476.79v-72.398   V226.029v-85.64v-0.886v-0.885c0-24.28,8.938-45.358,26.051-62.688c17.33-17.546,38.398-26.927,63.573-26.927   c25.166,0,46.244,9.381,63.563,26.927c17.113,17.33,26.052,38.408,26.052,62.688v0.885v1.762v400.427   c0,25.156-19.421,44.586-44.586,44.586c-24.281,0-44.153-20.306-44.153-44.586V331.984c0-13.685-10.596-24.28-24.28-24.28   s-24.28,10.595-24.28,24.28v209.708c0,26.041,8.834,48.117,26.927,66.22c18.102,18.102,39.736,26.927,65.787,26.927   c26.041,0,47.9-9.051,66.219-26.927c17.886-17.452,26.928-39.293,26.928-66.22V139.503v-0.885   c0-37.965-13.798-70.524-40.612-97.564C424.368,13.788,391.809,0,353.844,0c-37.974,0-70.533,13.788-97.573,41.054   c-26.813,27.04-40.611,59.599-40.611,97.564v0.885v86.526v178.363v72.398v135.528c0,49.889,17.659,92.271,52.535,127.146   S345.452,792,395.341,792s93.146-16.773,128.465-52.093c35.318-35.318,52.535-78.576,52.535-127.589V253.408   C576.341,239.713,565.745,229.118,552.061,229.118z" fill="#FFFFFF"/>
</g>
<g>
</g>
<g>
</g>
<g>
</g>
<g>
</g>
<g>
</g>
<g>
</g>
<g>
</g>
<g>
</g>
<g>
</g>
<g>
</g>
<g>
</g>
<g>
</g>
<g>
</g>
<g>
</g>
<g>
</g>
</svg>
