<?xml version="1.0" encoding="UTF-8"?>
<svg width="15px" height="14px" viewBox="0 0 15 14" version="1.1" xmlns="http://www.w3.org/2000/svg" xmlns:xlink="http://www.w3.org/1999/xlink">
    <!-- Generator: Sketch 46.2 (44496) - http://www.bohemiancoding.com/sketch -->
    <title>passage-of-time</title>
    <desc>Created with Sketch.</desc>
    <defs></defs>
    <g id="Page-1" stroke="none" stroke-width="1" fill="none" fill-rule="evenodd">
        <g id="Issues-Picker-View-(Without-Project-Select)" transform="translate(-160.000000, -79.000000)" fill-rule="nonzero" fill="#5E5E5E">
            <g id="Tabs" transform="translate(0.000000, 68.000000)">
                <g id="Recent" transform="translate(127.000000, 0.000000)">
                    <g id="Tab-Content" transform="translate(33.000000, 11.000000)">
                        <g id="passage-of-time">
                            <path d="M14.9700454,5.69969621 C14.9180251,5.59188511 14.8069633,5.52291087 14.6840932,5.52291087 L13.7499613,5.52291087 C13.156036,2.38520402 10.325875,0 6.933703,0 C3.1106878,0 0,3.02834227 0,6.75015535 C0,10.4719684 3.11036866,13.5 6.933703,13.5 C9.40099831,13.5 11.7020201,12.2071989 12.9386996,10.1267865 C13.1129517,9.8331799 13.0101876,9.45817127 12.7082783,9.28822121 C12.4070072,9.11827116 12.0214823,9.21831488 11.8475493,9.51192147 C10.8352274,11.2148397 8.95228311,12.2730662 6.933703,12.2730662 C3.80578147,12.2730662 1.26061525,9.79558583 1.26061525,6.75077674 C1.26061525,3.70534625 3.80578147,1.22786587 6.933703,1.22786587 C9.62790905,1.22786587 11.8852082,3.06748982 12.4603041,5.52322156 L11.5335125,5.52322156 C11.4106424,5.52322156 11.2998998,5.59219581 11.2475603,5.7000069 C11.19554,5.807818 11.2124545,5.93489218 11.2909638,6.02654715 L12.8668924,7.86741387 C12.9268913,7.9373202 13.0152939,7.97771052 13.109122,7.97771052 C13.2026309,7.97771052 13.2913527,7.9370095 13.3510325,7.86741387 L14.9269611,6.02654715 C15.0054703,5.93458148 15.0220657,5.80750731 14.9700454,5.69969621 Z" id="Shape"></path>
                            <path d="M7.05453157,1.5 C6.72163402,1.5 6.45189851,1.77461376 6.45189851,2.11353187 L6.45189851,5.83635008 C6.17941683,6.03081639 6,6.3514062 6,6.71548689 C6,7.30758398 6.47325766,7.78940065 7.0548367,7.78940065 C7.21411491,7.78940065 7.3642392,7.75056952 7.49971721,7.68564387 L9.59596487,8.91736735 C9.69116564,8.97359483 9.7942998,9 9.8968237,9 C10.1049228,9 10.3075296,8.89003024 10.4192074,8.69307874 C10.5855036,8.40013669 10.4869464,8.02456198 10.1982928,7.85525825 L8.09990923,6.62167088 C8.07183721,6.29735327 7.90615126,6.01404134 7.6577749,5.83697138 L7.6577749,2.11353187 C7.65716463,1.77492441 7.387124,1.5 7.05453157,1.5 Z M7.05453157,7.17524748 C6.80523982,7.17524748 6.60263306,6.96866587 6.60263306,6.71548689 C6.60263306,6.46199727 6.80554495,6.25541565 7.05453157,6.25541565 C7.30351819,6.25541565 7.50643009,6.46199727 7.50643009,6.71548689 C7.50643009,6.96866587 7.30351819,7.17524748 7.05453157,7.17524748 Z" id="Shape"></path>
                        </g>
                    </g>
                </g>
            </g>
        </g>
    </g>
</svg>