<?xml version="1.0" encoding="UTF-8"?>
<svg width="287px" height="287px" viewBox="0 0 287 287" version="1.1" xmlns="http://www.w3.org/2000/svg" xmlns:xlink="http://www.w3.org/1999/xlink">
    <!-- Generator: Sketch 46.2 (44496) - http://www.bohemiancoding.com/sketch -->
    <title>stop</title>
    <desc>Created with Sketch.</desc>
    <defs></defs>
    <g id="Page-1" stroke="none" stroke-width="1" fill="none" fill-rule="evenodd">
        <g id="stop" fill-rule="nonzero" fill="#FFFFFF">
            <path d="M143.027,0.004 C64.04,0.004 0,64.036 0,143.022 C0,222.018 64.04,286.049 143.027,286.049 C222.014,286.049 286.054,222.018 286.054,143.022 C286.054,64.045 222.014,0.004 143.027,0.004 Z M143.027,259.232 C78.844,259.232 26.818,207.206 26.818,143.023 C26.818,78.84 78.844,26.813 143.027,26.813 C207.21,26.813 259.236,78.839 259.236,143.022 C259.236,207.205 207.21,259.232 143.027,259.232 Z M169.844,98.327 L116.209,98.327 C106.34,98.327 98.331,106.337 98.331,116.205 L98.331,169.84 C98.331,179.709 106.341,187.718 116.209,187.718 L169.844,187.718 C179.713,187.718 187.722,179.708 187.722,169.84 L187.722,116.205 C187.723,106.336 179.713,98.327 169.844,98.327 Z" id="Shape"></path>
        </g>
    </g>
</svg>